# xmcd CD database file
#
# Track frame offsets:
#	150
#	4604
#	10770
#	15073
#	19345
#	25929
#	32498
#	39056
#	45567
#	49708
#	52916
#	57076
#	61125
#	67476
#	73866
#	80280
#	86638
#	91629
#	95683
#	100435
#	105230
#	109197
#	113077
#	116982
#	120879
#	124442
#	127848
#	132050
#	136192
#	140049
#	143783
#	147550
#
# Disc length: 2013 seconds
#
# Revision: 0
# Processed by: cddbd v1.5.1PL0 Copyright (c) Steve Scherf et al.
# Submitted via: CDex 1.51
#
DISCID=a807db20
DTITLE=Standards à la carte - Volume 1
DYEAR=1997
DGENRE=Jazz
TTITLE0=Autumn Leaves 1
TTITLE1=Autumn Leaves 2
TTITLE2=Autumn Leaves 3
TTITLE3=Autumn Leaves 4
TTITLE4=Autumn Leaves 5
TTITLE5=Autumn Leaves 6
TTITLE6=Autumn Leaves 7
TTITLE7=Autumn Leaves 8
TTITLE8=Someday My Prince Will Come 1
TTITLE9=Someday My Prince Will Come 2
TTITLE10=Someday My Prince Will Come 3
TTITLE11=Someday My Prince Will Come 4
TTITLE12=Someday My Prince Will Come 5
TTITLE13=Someday My Prince Will Come 6
TTITLE14=Someday My Prince Will Come 7
TTITLE15=Someday My Prince Will Come 8
TTITLE16=It Don't Mean a Thing 1
TTITLE17=It Don't Mean a Thing 2
TTITLE18=It Don't Mean a Thing 3
TTITLE19=It Don't Mean a Thing 4
TTITLE20=It Don't Mean a Thing 5
TTITLE21=It Don't Mean a Thing 6
TTITLE22=It Don't Mean a Thing 7
TTITLE23=It Don't Mean a Thing 8
TTITLE24=Blue Bossa 1
TTITLE25=Blue Bossa 2
TTITLE26=Blue Bossa 3
TTITLE27=Blue Bossa 4
TTITLE28=Blue Bossa 5
TTITLE29=Blue Bossa 6
TTITLE30=Blue Bossa 7
TTITLE31=Blue Bossa 8
EXTD=YEAR: 1997
EXTT0=
EXTT1=
EXTT2=
EXTT3=
EXTT4=
EXTT5=
EXTT6=
EXTT7=
EXTT8=
EXTT9=
EXTT10=
EXTT11=
EXTT12=
EXTT13=
EXTT14=
EXTT15=
EXTT16=
EXTT17=
EXTT18=
EXTT19=
EXTT20=
EXTT21=
EXTT22=
EXTT23=
EXTT24=
EXTT25=
EXTT26=
EXTT27=
EXTT28=
EXTT29=
EXTT30=
EXTT31=
PLAYORDER=
